<!DOCTYPE svg PUBLIC "-//W3C//DTD SVG 1.1//EN" "http://www.w3.org/Graphics/SVG/1.1/DTD/svg11.dtd">
<!-- Uploaded to: SVG Repo, www.svgrepo.com, Transformed by: SVG Repo Mixer Tools -->
<svg version="1.1" id="Uploaded to svgrepo.com" xmlns="http://www.w3.org/2000/svg" xmlns:xlink="http://www.w3.org/1999/xlink" width="64px" height="64px" viewBox="0 0 32 32" xml:space="preserve" fill="#02A07D" stroke="#02A07D" stroke-width="0.00032">
<g id="SVGRepo_bgCarrier" stroke-width="0"/>
<g id="SVGRepo_tracerCarrier" stroke-linecap="round" stroke-linejoin="round"/>
<g id="SVGRepo_iconCarrier"> <style type="text/css"> .sharpcorners_een{fill:#02A07D;} .st0{fill:#02A07D;} </style> <path class="sharpcorners_een" d="M12,2v6h4v1h1v2h-1v2h1v2h-1v2h1v2h-1v2h1v2h-1v2h1v2h-1v3h3v-5h2v5h7V2H12z M17,7h-2V5h2V7z M21,23h-2v-2h2V23z M21,19h-2v-2h2V19z M21,15h-2v-2h2V15z M21,11h-2V9h2V11z M21,7h-2V5h2V7z M25,27h-2v-2h2V27z M25,23h-2v-2h2 V23z M25,19h-2v-2h2V19z M25,15h-2v-2h2V15z M25,11h-2V9h2V11z M25,7h-2V5h2V7z M3,30h7v-5h2v5h3V9H3V30z M10,13h2v2h-2V13z M10,17 h2v2h-2V17z M10,21h2v2h-2V21z M6,13h2v2H6V13z M6,17h2v2H6V17z M6,21h2v2H6V21z M6,25h2v2H6V25z"/> </g>
</svg>