<svg xmlns="http://www.w3.org/2000/svg" version="1.1" xmlns:xlink="http://www.w3.org/1999/xlink" xmlns:svgjs="http://svgjs.dev/svgjs" width="128" height="128" viewBox="0 0 128 128"><g transform="matrix(0.6130952380952381,0,0,0.6130952380952381,24.59996312281318,12.333870967741937)"><svg viewBox="0 0 118 155" data-background-color="#ffffff" preserveAspectRatio="xMidYMid meet" height="168" width="128" xmlns="http://www.w3.org/2000/svg" xmlns:xlink="http://www.w3.org/1999/xlink"><g id="tight-bounds" transform="matrix(1,0,0,1,0.2435020519835831,0.25)"><svg viewBox="0 0 117.51299589603282 154.5" height="154.5" width="117.51299589603282"><g><svg viewBox="0 0 117.51299589603282 154.5" height="154.5" width="117.51299589603282"><g><svg viewBox="0 0 117.51299589603282 154.5" height="154.5" width="117.51299589603282"><g id="textblocktransform"><svg viewBox="0 0 117.51299589603282 154.5" height="154.5" width="117.51299589603282" id="textblock"><g><svg viewBox="0 0 117.51299589603282 154.5" height="154.5" width="117.51299589603282"><g transform="matrix(1,0,0,1,0,0)"><svg width="117.51299589603282" viewBox="0.4 -36 68.35 36.55" height="154.5" data-palette-color="#181918"><g class="undefined-text-0" data-fill-palette-color="primary" id="text-0"><path d="M17.75-10.35L17.75-10.35 17.75-32.05 12.8-33.1 12.8-36 28.2-36 28.2-33.1 24.25-32.05 24.25-10.9Q24.25-7.45 22.78-4.88 21.3-2.3 18.65-0.88 16 0.55 12.45 0.55L12.45 0.55Q8.9 0.55 6.18-0.6 3.45-1.75 1.93-3.78 0.4-5.8 0.4-8.5L0.4-8.5Q0.4-10.8 1.4-12.25 2.4-13.7 4.4-13.7L4.4-13.7Q6.15-13.7 7.25-12.7 8.35-11.7 8.35-10.05L8.35-10.05Q8.35-8.9 7.7-7.73 7.05-6.55 6.2-6.15L6.2-6.15Q6.45-4.85 7.9-3.98 9.35-3.1 12-3.1L12-3.1Q14.75-3.1 16.25-4.9 17.75-6.7 17.75-10.35ZM68.75-33.1L64.55-32.05 64.55-3.95 68.75-2.9 68.75 0 53.85 0 53.85-2.9 58.05-3.95 58.05-16.65 42.6-16.65 42.6-3.95 46.8-2.9 46.8 0 31.9 0 31.9-2.9 36.1-3.95 36.1-32.05 31.9-33.1 31.9-36 46.8-36 46.8-33.1 42.6-32.05 42.6-20.3 58.05-20.3 58.05-32.05 53.85-33.1 53.85-36 68.75-36 68.75-33.1Z" fill="#181918" data-fill-palette-color="primary"></path></g></svg></g></svg></g></svg></g></svg></g></svg></g><defs></defs></svg><rect width="117.51299589603282" height="154.5" fill="none" stroke="none" visibility="hidden"></rect></g></svg></g></svg>