<svg xmlns="http://www.w3.org/2000/svg" version="1.1" xmlns:xlink="http://www.w3.org/1999/xlink" xmlns:svgjs="http://svgjs.dev/svgjs" width="2000" height="287" viewBox="0 0 2000 287"><g transform="matrix(1,0,0,1,-1.2121164220237688,1.0050088511105173)"><svg viewBox="0 0 396 57" data-background-color="#ffffff" preserveAspectRatio="xMidYMid meet" height="287" width="2000" xmlns="http://www.w3.org/2000/svg" xmlns:xlink="http://www.w3.org/1999/xlink"><g id="tight-bounds" transform="matrix(1,0,0,1,0.23999906082281086,-0.1996010610219514)"><svg viewBox="0 0 395.52 57.39920094007049" height="57.39920094007049" width="395.52"><g><svg viewBox="0 0 395.52 57.39920094007049" height="57.39920094007049" width="395.52"><g><svg viewBox="0 0 395.52 57.39920094007049" height="57.39920094007049" width="395.52"><g id="textblocktransform"><svg viewBox="0 0 395.52 57.39920094007049" height="57.39920094007049" width="395.52" id="textblock"><g><svg viewBox="0 0 395.52 57.39920094007049" height="57.39920094007049" width="395.52"><g transform="matrix(1,0,0,1,0,0)"><svg width="395.52" viewBox="0.4000000059604645 -36.5 254.52999877929688 37.04999923706055" height="57.39920094007049" data-palette-color="#181918"><g class="undefined-text-0" data-fill-palette-color="primary" id="text-0"><path d="M17.75-10.35L17.75-10.35 17.75-32.05 12.8-33.1 12.8-36 28.2-36 28.2-33.1 24.25-32.05 24.25-10.9Q24.25-7.45 22.78-4.88 21.3-2.3 18.65-0.88 16 0.55 12.45 0.55L12.45 0.55Q8.9 0.55 6.18-0.6 3.45-1.75 1.93-3.78 0.4-5.8 0.4-8.5L0.4-8.5Q0.4-10.8 1.4-12.25 2.4-13.7 4.4-13.7L4.4-13.7Q6.15-13.7 7.25-12.7 8.35-11.7 8.35-10.05L8.35-10.05Q8.35-8.9 7.7-7.73 7.05-6.55 6.2-6.15L6.2-6.15Q6.45-4.85 7.9-3.98 9.35-3.1 12-3.1L12-3.1Q14.75-3.1 16.25-4.9 17.75-6.7 17.75-10.35ZM66.4-18.4L66.4-18.4Q66.4-14.25 65.2-10.4 64-6.55 61.4-3.85L61.4-3.85Q59.25-1.65 56.25-0.58 53.25 0.5 49.05 0.5L49.05 0.5Q44.85 0.5 41.85-0.55 38.85-1.6 36.8-3.7L36.8-3.7Q34.65-5.95 33.32-9.58 32-13.2 32-17.6L32-17.6Q32-21.95 33.32-25.78 34.65-29.6 37-32.15L37-32.15Q39.1-34.4 42.05-35.45 45-36.5 49.2-36.5L49.2-36.5Q53.2-36.5 56.25-35.5 59.3-34.5 61.55-32.3L61.55-32.3Q64.15-29.7 65.27-26.03 66.4-22.35 66.4-18.4ZM39.25-18.55L39.25-18.55Q39.25-14.65 39.97-11.65 40.7-8.65 41.95-6.75L41.95-6.75Q43.15-4.9 44.95-3.95 46.75-3 49.35-3L49.35-3Q54.05-3 56.45-6.3L56.45-6.3Q57.75-8.05 58.45-10.9 59.15-13.75 59.15-17.7L59.15-17.7Q59.15-21.65 58.42-24.58 57.7-27.5 56.4-29.35L56.4-29.35Q55.1-31.25 53.22-32.15 51.35-33.05 49-33.05L49-33.05Q46.65-33.05 44.92-32.18 43.2-31.3 42.05-29.75L42.05-29.75Q39.25-26.05 39.25-18.55ZM99.75-27.35L99.75-27.35Q99.75-25.45 98.87-23.8 98-22.15 96.5-21.05 95-19.95 93.05-19.7L93.05-19.7 93.05-19.5Q96.95-18.7 99.2-16.2 101.44-13.7 101.44-10.05L101.44-10.05Q101.44-7.25 99.97-4.88 98.5-2.5 96.25-1.35L96.25-1.35Q94.84-0.65 92.8-0.33 90.75 0 87.05 0L87.05 0 70.59 0 70.59-2.9 74.8-3.95 74.8-32.05 70.59-33.1 70.59-36 88.9-36Q94.15-36 97-33.45L97-33.45Q98.3-32.25 99.02-30.65 99.75-29.05 99.75-27.35ZM86.2-16.95L86.2-16.95 81.3-16.95 81.3-3.75 85.3-3.75Q87.59-3.75 89-4 90.4-4.25 91.34-4.8L91.34-4.8Q92.7-5.5 93.55-7.03 94.4-8.55 94.4-10.55L94.4-10.55Q94.4-12.3 93.75-13.5 93.09-14.7 92.09-15.5L92.09-15.5Q91.2-16.2 89.8-16.57 88.4-16.95 86.2-16.95ZM86.25-32.35L81.3-32.35 81.3-20.6 86.05-20.6Q89.55-20.6 91.2-22.35L91.2-22.35Q91.95-23.05 92.5-24.13 93.05-25.2 93.05-26.6L93.05-26.6Q93.05-28 92.5-29.1 91.95-30.2 91.2-30.85L91.2-30.85Q89.7-32.35 86.25-32.35L86.25-32.35Z" fill="#181918" data-fill-palette-color="primary"></path><path d="M140.34-33.1L136.14-32.05 136.14-3.95 140.34-2.9 140.34 0 125.44 0 125.44-2.9 129.64-3.95 129.64-16.65 114.19-16.65 114.19-3.95 118.39-2.9 118.39 0 103.49 0 103.49-2.9 107.69-3.95 107.69-32.05 103.49-33.1 103.49-36 118.39-36 118.39-33.1 114.19-32.05 114.19-20.3 129.64-20.3 129.64-32.05 125.44-33.1 125.44-36 140.34-36 140.34-33.1ZM171.59-13.7L171.59-13.7 171.59-32.05 167.39-33.1 167.39-36 180.44-36 180.44-33.1 176.24-32.05 176.24-12.15Q176.24-5.95 172.51-2.7 168.79 0.55 161.59 0.55L161.59 0.55Q154.94 0.55 151.36-2.78 147.79-6.1 147.79-12.2L147.79-12.2 147.79-32.05 143.59-33.1 143.59-36 158.49-36 158.49-33.1 154.29-32.05 154.29-13.8Q154.29-2.95 162.69-2.95L162.69-2.95Q167.39-2.95 169.49-5.5 171.59-8.05 171.59-13.7ZM183.64-2.9L187.84-3.95 187.84-32.05 183.64-33.1 183.64-36 195.19-36 211.89-9.6 211.89-32.05 207.69-33.1 207.69-36 220.84-36 220.84-33.1 216.64-32.05 216.64 0 211.09 0 192.59-28.7 192.59-3.95 196.79-2.9 196.79 0 183.64 0 183.64-2.9ZM223.63-24.75L223.63-36 254.93-36 254.93-24.75 251.73-24.75 250.13-32.25 242.53-32.25 242.53-4.1 247.83-2.9 247.83 0 230.73 0 230.73-2.9 236.03-4.1 236.03-32.25 228.38-32.25 226.83-24.75 223.63-24.75Z" fill="#02a07d" data-fill-palette-color="secondary"></path></g></svg></g></svg></g></svg></g></svg></g></svg></g><defs></defs></svg><rect width="395.52" height="57.39920094007049" fill="none" stroke="none" visibility="hidden"></rect></g></svg></g></svg>